<mxfile host="app.diagrams.net" agent="Mozilla/5.0 (X11; Linux x86_64; rv:130.0) Gecko/20100101 Firefox/130.0" version="24.7.12">
  <diagram name="Page-1" id="gG51Od18AzhkP7Pfx0KL">
    <mxGraphModel dx="880" dy="481" grid="0" gridSize="10" guides="1" tooltips="1" connect="1" arrows="1" fold="1" page="1" pageScale="1" pageWidth="850" pageHeight="1100" math="0" shadow="0">
      <root>
        <mxCell id="0" />
        <mxCell id="1" parent="0" />
        <mxCell id="-O853JUOFa3dfuQeVED0-1" value="&lt;div style=&quot;font-size: 24px;&quot;&gt;Azquistion &lt;font style=&quot;font-size: 24px;&quot;&gt;&lt;font style=&quot;font-size: 24px;&quot;&gt;&lt;br&gt;&lt;/font&gt;&lt;/font&gt;&lt;/div&gt;&lt;div&gt;&lt;font style=&quot;font-size: 22px;&quot;&gt;&lt;br&gt;&lt;/font&gt;&lt;/div&gt;&lt;div&gt;SENDS DATA FROM VYAKUTA API TO SQL &lt;br&gt;&lt;/div&gt;&lt;div&gt;&lt;font size=&quot;1&quot;&gt;&lt;br&gt;&lt;/font&gt;&lt;/div&gt;" style="rounded=0;whiteSpace=wrap;html=1;" parent="1" vertex="1">
          <mxGeometry x="68" y="67" width="120" height="250" as="geometry" />
        </mxCell>
        <mxCell id="-O853JUOFa3dfuQeVED0-2" value="" style="endArrow=classic;html=1;rounded=0;exitX=1;exitY=0.5;exitDx=0;exitDy=0;entryX=0;entryY=0.5;entryDx=0;entryDy=0;" parent="1" source="-O853JUOFa3dfuQeVED0-1" target="-O853JUOFa3dfuQeVED0-3" edge="1">
          <mxGeometry width="50" height="50" relative="1" as="geometry">
            <mxPoint x="400" y="280" as="sourcePoint" />
            <mxPoint x="290" y="70" as="targetPoint" />
          </mxGeometry>
        </mxCell>
        <mxCell id="-O853JUOFa3dfuQeVED0-3" value="&lt;div&gt;&lt;font style=&quot;font-size: 22px;&quot;&gt;SQL&lt;br&gt;&lt;/font&gt;&lt;/div&gt;&lt;div&gt;&lt;font style=&quot;font-size: 22px;&quot;&gt;&lt;br&gt;&lt;/font&gt;&lt;/div&gt;&lt;div style=&quot;&quot;&gt;-stores raw data&lt;/div&gt;&lt;div style=&quot;&quot;&gt;&lt;br&gt;&lt;/div&gt;&lt;div style=&quot;&quot;&gt;- stores process data&lt;/div&gt;&lt;div style=&quot;&quot;&gt;&lt;br&gt;&lt;/div&gt;&lt;div style=&quot;&quot;&gt;- provide platform to fetch process data&lt;br&gt;&lt;/div&gt;&lt;div style=&quot;&quot;&gt;&lt;br&gt;&lt;/div&gt;&lt;div style=&quot;&quot;&gt;&lt;br&gt;&lt;/div&gt;&lt;div style=&quot;&quot;&gt;&amp;nbsp; &lt;br&gt;&lt;/div&gt;&lt;div style=&quot;&quot;&gt;&lt;br&gt;&lt;/div&gt;" style="rounded=0;whiteSpace=wrap;html=1;" parent="1" vertex="1">
          <mxGeometry x="366" y="78" width="91" height="236" as="geometry" />
        </mxCell>
        <mxCell id="-O853JUOFa3dfuQeVED0-4" value="&lt;div&gt;&lt;font style=&quot;font-size: 24px;&quot;&gt;ETL&amp;nbsp; &lt;/font&gt;&lt;br&gt;&lt;/div&gt;&lt;div&gt;&lt;font style=&quot;font-size: 17px;&quot;&gt;&lt;br&gt;&lt;/font&gt;&lt;/div&gt;&lt;div&gt;-Process Raw Data&lt;br&gt;&lt;/div&gt;&lt;div&gt;&lt;br&gt;&lt;/div&gt;&lt;div&gt;- stores process data&lt;br&gt;&lt;/div&gt;&lt;div style=&quot;&quot;&gt;&lt;font style=&quot;font-size: 12px;&quot;&gt;&lt;br&gt;&lt;/font&gt;&lt;/div&gt;&lt;div style=&quot;&quot;&gt;&lt;font style=&quot;font-size: 12px;&quot;&gt;&lt;br&gt;&lt;/font&gt;&lt;/div&gt;" style="rounded=0;whiteSpace=wrap;html=1;" parent="1" vertex="1">
          <mxGeometry x="351.5" y="369" width="120" height="133" as="geometry" />
        </mxCell>
        <mxCell id="-O853JUOFa3dfuQeVED0-6" value="&lt;div&gt;&lt;font style=&quot;font-size: 22px;&quot;&gt;Matplotlib&lt;br&gt;&lt;/font&gt;&lt;/div&gt;&lt;div&gt;&lt;font style=&quot;font-size: 22px;&quot;&gt;&lt;br&gt;&lt;/font&gt;&lt;/div&gt;&lt;div&gt;&lt;span class=&quot;hljs-bullet&quot;&gt;   -&lt;/span&gt; Visualize data in Asked Format &lt;span class=&quot;hljs-bullet&quot;&gt;&lt;/span&gt;&lt;/div&gt;&lt;div&gt;&lt;span class=&quot;hljs-bullet&quot;&gt;&lt;br&gt;&lt;/span&gt;&lt;/div&gt;&lt;div&gt;&lt;span class=&quot;hljs-bullet&quot;&gt;&lt;br&gt;&lt;/span&gt;&lt;/div&gt;&lt;div&gt;&lt;br&gt;&lt;/div&gt;" style="rounded=0;whiteSpace=wrap;html=1;" parent="1" vertex="1">
          <mxGeometry x="629" y="67" width="120" height="240" as="geometry" />
        </mxCell>
        <mxCell id="-O853JUOFa3dfuQeVED0-7" value="" style="endArrow=classic;html=1;rounded=0;exitX=0.5;exitY=1;exitDx=0;exitDy=0;entryX=0.5;entryY=0;entryDx=0;entryDy=0;" parent="1" source="-O853JUOFa3dfuQeVED0-3" target="-O853JUOFa3dfuQeVED0-4" edge="1">
          <mxGeometry width="50" height="50" relative="1" as="geometry">
            <mxPoint x="180" y="80" as="sourcePoint" />
            <mxPoint x="240" y="80" as="targetPoint" />
          </mxGeometry>
        </mxCell>
        <mxCell id="-O853JUOFa3dfuQeVED0-8" value="" style="endArrow=classic;html=1;rounded=0;exitX=0;exitY=0.5;exitDx=0;exitDy=0;entryX=1.008;entryY=0.464;entryDx=0;entryDy=0;entryPerimeter=0;" parent="1" source="-O853JUOFa3dfuQeVED0-6" target="-O853JUOFa3dfuQeVED0-3" edge="1">
          <mxGeometry width="50" height="50" relative="1" as="geometry">
            <mxPoint x="360" y="80" as="sourcePoint" />
            <mxPoint x="435" y="80" as="targetPoint" />
          </mxGeometry>
        </mxCell>
        <mxCell id="-O853JUOFa3dfuQeVED0-13" value="&lt;div&gt;Send Raw Data&lt;/div&gt;&lt;div&gt;&lt;br&gt;&lt;/div&gt;" style="text;html=1;align=center;verticalAlign=middle;resizable=0;points=[];autosize=1;strokeColor=none;fillColor=none;" parent="1" vertex="1">
          <mxGeometry x="196" y="153" width="101" height="41" as="geometry" />
        </mxCell>
        <mxCell id="-O853JUOFa3dfuQeVED0-15" value="&lt;div&gt;Fetch Data &lt;br&gt;&lt;/div&gt;&lt;div&gt;For &lt;br&gt;&lt;/div&gt;&lt;div&gt;Visualization&lt;/div&gt;&lt;div&gt;&lt;br&gt;&lt;/div&gt;" style="text;html=1;align=center;verticalAlign=middle;resizable=0;points=[];autosize=1;strokeColor=none;fillColor=none;" parent="1" vertex="1">
          <mxGeometry x="498" y="127" width="90" height="70" as="geometry" />
        </mxCell>
      </root>
    </mxGraphModel>
  </diagram>
</mxfile>
